<svg width="80" height="80" viewBox="0 0 80 80" fill="none" xmlns="http://www.w3.org/2000/svg">
<circle cx="40" cy="40" r="40" fill="#373D4D"/>
<path d="M29.4 40.025C29.4 36.125 29.4 32.125 29.4 28.225C29.4 26.925 29.7 26.425 31 26.025C36.9 24.125 42.8 22.225 48.6 20.225C49.4 19.925 50.1 19.925 50.9 20.225C56.8 22.125 62.6 24.125 68.5 26.025C69.8 26.425 70.1 26.925 70.1 28.225C70.1 36.025 70.1 43.925 70.1 51.725C70.1 53.025 69.8 53.525 68.5 53.925C62.6 55.925 56.7 57.825 50.7 59.825C50 60.025 49.3 60.025 48.7 59.825C42.8 57.925 36.9 55.925 31 54.025C29.8 53.625 29.4 53.125 29.4 51.825C29.4 47.825 29.4 43.925 29.4 40.025ZM66.9 51.125C66.9 44.025 66.9 37.025 66.9 29.925C66.8 29.925 66.7 29.925 66.6 30.025C61.7 31.625 56.8 33.225 51.9 34.825C51.5 34.925 51.5 35.225 51.5 35.525C51.5 42.125 51.5 48.825 51.5 55.425C51.5 55.625 51.5 55.825 51.5 56.125C53.4 55.525 55.2 54.925 57 54.425C57.5 54.325 57.7 54.025 57.7 53.525C57.7 51.125 57.7 48.625 57.7 46.225C57.7 45.125 58.3 44.525 59.3 44.525C60.2 44.525 60.9 45.225 60.9 46.325C60.9 48.125 60.9 50.025 60.9 51.825C60.9 52.225 60.9 52.625 60.9 53.125C62.8 52.425 64.9 51.725 66.9 51.125ZM32.7 29.825C32.7 29.925 32.7 30.025 32.7 30.125C32.7 36.925 32.7 43.825 32.7 50.625C32.7 51.025 32.9 51.125 33.2 51.225C37.5 52.625 41.8 54.025 46.1 55.425C46.8 55.625 47.5 55.925 48.3 56.125C48.3 56.025 48.3 55.925 48.3 55.825C48.3 49.025 48.3 42.125 48.3 35.325C48.3 34.925 48.1 34.825 47.8 34.725C46.1 34.225 44.4 33.625 42.6 33.125C42.4 33.025 42.3 33.025 42 33.025C42 34.325 42 35.625 42 36.825C42 39.125 42 41.525 42 43.825C42 44.825 41.5 45.325 40.6 45.425C39.5 45.525 38.8 44.825 38.8 43.625C38.8 39.925 38.8 36.325 38.8 32.625C38.8 32.425 38.8 32.125 38.8 31.925C36.8 31.225 34.7 30.525 32.7 29.825ZM63.3 27.625C63.1 27.525 63 27.525 62.9 27.425C58.6 26.025 54.3 24.625 50.1 23.225C49.9 23.125 49.6 23.225 49.3 23.225C46.5 24.125 43.8 25.025 41 25.925C39.4 26.425 37.8 26.925 36.1 27.525C37.4 27.925 38.6 28.425 39.9 28.725C40.2 28.825 40.7 28.825 41 28.725C43.1 28.025 45.2 27.225 47.3 26.425C48.2 26.125 49.1 26.525 49.4 27.425C49.7 28.225 49.3 29.125 48.4 29.525C48 29.725 47.6 29.825 47.2 29.925C46.7 30.125 46.1 30.325 45.6 30.525C46.6 30.925 47.5 31.225 48.4 31.625C49.3 32.025 50.1 31.925 51.1 31.625C55.1 30.325 59.2 29.025 63.3 27.625Z" fill="#BABCC2"/>
<path d="M16.3 38.325C18.1 38.325 20 38.325 21.8 38.325C22.9 38.325 23.6 39.025 23.6 39.925C23.6 40.925 22.9 41.525 21.8 41.525C18.1 41.525 14.5 41.525 10.8 41.525C9.7 41.525 9 40.925 9 39.925C9 38.925 9.7 38.325 10.8 38.325C12.6 38.325 14.4 38.325 16.3 38.325Z" fill="#BABCC2"/>
<path d="M16.3 50.525C14.4 50.525 12.6 50.525 10.7 50.525C9.70001 50.525 9 49.925 9 48.925C9 48.025 9.70001 47.325 10.7 47.325C14.4 47.325 18.1 47.325 21.8 47.325C22.8 47.325 23.5 48.025 23.5 48.925C23.5 49.925 22.8 50.525 21.8 50.525C20 50.525 18.1 50.525 16.3 50.525Z" fill="#BABCC2"/>
<path d="M16.3 29.425C18.1 29.425 20 29.425 21.8 29.425C22.9 29.425 23.6 30.125 23.6 31.125C23.6 32.025 22.9 32.725 21.8 32.725C18.1 32.725 14.4 32.725 10.7 32.725C9.90001 32.725 9.3 32.325 9.1 31.625C8.9 30.925 9 30.225 9.6 29.825C9.9 29.625 10.4 29.425 10.8 29.425C12.6 29.425 14.4 29.425 16.3 29.425Z" fill="#BABCC2"/>
</svg>
