  <svg
            width="300"
            height="75"
            viewBox="0 0 415 100"
            fill="none"
            xmlns="http://www.w3.org/2000/svg"
        >
            <g clip-path="url(#clip0)">
                <path
                    d="M61.4 0.2C63.3 0.5 65.3 0.8 67.1 1.5C70.7 2.9 71.9 6 72.8 9.3C73 10.1 73 11 73 11.8C73 20.8 73 29.9 73 38.9C73 45.6 73 52.3 73 59C72.7 59 72.5 59 72.2 59C57.9 59 43.6 59 29.3 59C28.9 59 28.5 59 28.1 58.9C25.1 58.6 22.9 56.4 22.5 53.4C22.3 52.3 22.4 51.2 22.3 50.2C22.3 49.5 22.5 49.3 23.1 49C29.1 46.6 35.1 44.1 41.2 41.6C47.3 39.1 53.4 36.6 59.4 34.2C59.8 34 60.3 34 60.2 33.3C60.1 29.9 60.3 26.5 60 23.1C59.3 16.2 55.1 11.9 48.1 11.3C44.6 11 41.1 11.1 37.7 11.2C33.4 11.2 29.1 10.9 24.8 11.4C21.2 11.8 17.8 12.9 15.3 15.8C13.1 18.4 12.2 21.5 12.2 24.8C12.1 30.6 12.1 36.4 12.1 42.2C12.1 47.1 11.9 51.9 12.3 56.8C12.7 62.2 15.6 65.8 20.5 67.9C23.3 69.2 26.4 69.1 29.5 69.1C43.7 69.1 57.8 69.1 72 69.1C72.3 69.1 72.7 69.1 73 69.1C72.4 73.2 70.8 76.7 66.7 78.3C64.8 79.1 62.8 79.4 60.7 79.6C56.2 80 32.7 79.5 25.4 79.7C21.3 79.8 17.2 79.8 13.2 79.6C11.2 79.5 9.3 79.3 7.4 78.8C3.7 77.9 1.6 75.5 0.999997 71.8C0.599997 69.4 0.399997 66.9 0.399997 64.5C0.399997 56.9 0.399997 49.4 0.299997 41.8C0.299997 38.1 0.199997 34.4 0.199997 30.8C0.199997 30.6 0.199997 15 0.199997 14.8C0.199997 12.7 0.499997 10.6 0.799997 8.6C1.6 3.9 4 1.4 8.5 0.7C10.9 0.3 13.4 0.2 15.9 0.2C21.9 0 28.3 0 34.6 0C34.9 0 60.2 0 61.4 0.2Z"
                    fill="#E13336"
                />
                <path
                    d="M142 34.5C142 44.4 142 54.2 142 64.1C142 67.3 141.5 70.4 139.8 73.2C137.8 76.5 134.7 78.2 131 78.8C129.3 79.1 127.7 79.2 126 79.2C115.2 79.2 104.3 79.2 93.5 79.2C92.6 79.2 92.3 79 92.4 78.1C92.5 75.8 92.5 73.5 92.4 71.2C92.4 70.2 92.7 70 93.6 70C103.5 70 113.4 70 123.3 70C124.9 70 126.4 69.8 127.8 69.2C130 68.3 131 66.5 131 64.2C131 63.5 130.9 62.8 131 62.1C131.1 61.3 130.7 61.1 130 61.1C123.8 61.1 117.7 61.1 111.5 61.1C108.2 61.1 104.8 61 101.6 59.9C95.2 57.6 91.9 52.7 90.9 46.2C90.7 44.9 90.7 43.5 90.7 42.2C90.7 29.3 90.7 16.3 90.7 3.4C90.7 2.5 90.9 2.2 91.8 2.2C94.7 2.3 97.7 2.3 100.6 2.2C101.5 2.2 101.7 2.4 101.6 3.3C101.6 16.1 101.6 29 101.6 41.8C101.6 48 105.9 51.2 110.5 52C111.4 52.1 112.2 52.2 113.1 52.2C118.6 52.2 124.2 52.2 129.7 52.2C130.7 52.2 130.9 51.9 130.9 51C130.9 35.2 130.9 19.4 130.9 3.6C130.9 2.6 131.1 2.3 132.2 2.3C135.1 2.4 138 2.4 140.9 2.3C141.8 2.3 142 2.5 142 3.4C142 13.7 142 24.1 142 34.5Z"
                    fill="#E13336"
                />
                <path
                    d="M414.6 39.4C414.6 46.3 414.6 53.2 414.6 60.1C414.6 61.1 414.3 61.3 413.4 61.3C401.7 61.3 390 61.3 378.3 61.3C375 61.3 371.7 61 368.6 59.8C363.1 57.7 359.7 53.7 358.6 47.9C357.9 44.2 358 40.6 359.1 37C361 30.8 365.5 27.4 371.7 26.1C373.7 25.7 375.8 25.5 377.9 25.5C386 25.5 394.2 25.5 402.3 25.5C403.1 25.5 403.4 25.3 403.4 24.5C403.3 21.7 403.2 18.8 402 16.2C400.6 13.1 398 11.6 394.7 11.6C383.7 11.6 372.7 11.6 361.7 11.6C360.6 11.6 360.4 11.3 360.5 10.3C360.6 7.9 360.5 5.6 360.5 3.2C360.5 2.6 360.6 2.4 361.2 2.4C374.1 2.4 386.9 2.2 399.8 2.5C407 2.7 412.8 7.4 414.2 15.5C414.5 17.2 414.6 18.8 414.6 20.5C414.6 26.7 414.6 33 414.6 39.4ZM391 34.5C387.6 34.5 384.2 34.5 380.9 34.5C379.9 34.5 378.8 34.6 377.8 34.7C374.2 35.2 371.9 37.1 371.1 40.2C370.7 41.9 370.6 43.6 370.9 45.3C371.4 48.5 373.3 50.6 376.4 51.4C377.9 51.8 379.4 52 381 52C388.2 52 395.5 52 402.7 52C403.4 52 403.7 51.9 403.7 51.1C403.7 45.8 403.7 40.6 403.7 35.3C403.7 34.6 403.5 34.4 402.8 34.4C398.7 34.5 394.9 34.5 391 34.5Z"
                    fill="#E13336"
                />
                <path
                    d="M206.4 39.1C206.4 46.1 206.4 53.1 206.4 60.2C206.4 61 206.2 61.3 205.4 61.3C193.7 61.3 182 61.3 170.2 61.3C166.3 61.3 162.5 60.9 159 59.2C153.6 56.6 150.9 52.2 150.3 46.4C149.9 43.3 150.1 40.2 151 37.2C152.8 31.3 156.9 27.9 162.8 26.4C165.1 25.8 167.4 25.6 169.7 25.6C177.9 25.6 186.1 25.6 194.3 25.6C195.1 25.6 195.4 25.4 195.4 24.5C195.3 22 195.3 19.5 194.4 17C193.1 13.5 190.4 11.5 186.6 11.5C175.6 11.5 164.6 11.5 153.7 11.5C152.8 11.5 152.5 11.3 152.5 10.3C152.6 7.9 152.5 5.5 152.5 3.1C152.5 2.5 152.6 2.2 153.3 2.2C166.1 2.2 179 2 191.8 2.3C198.8 2.5 204.7 7.1 206.1 15C206.4 16.5 206.5 18.1 206.5 19.6C206.4 26.1 206.4 32.6 206.4 39.1ZM182.8 34.5C181.6 34.5 180.3 34.5 179.1 34.5C175.9 34.6 172.8 34.3 169.6 34.7C165.9 35.2 163.5 37.2 162.8 40.6C162.5 41.8 162.5 43.1 162.5 44.3C162.7 48.1 164.6 50.5 168.3 51.5C169.7 51.9 171.2 52.1 172.7 52.1C180 52.1 187.2 52.1 194.5 52.1C195.2 52.1 195.4 51.9 195.4 51.2C195.4 45.9 195.4 40.7 195.4 35.4C195.4 34.6 195.1 34.5 194.4 34.5C190.5 34.5 186.7 34.5 182.8 34.5Z"
                    fill="#E13336"
                />
                <path
                    d="M73 69.1C72.7 69.1 72.3 69.1 72 69.1C57.8 69.1 43.7 69.1 29.5 69.1C26.5 69.1 23.4 69.2 20.5 67.9C15.7 65.8 12.8 62.1 12.3 56.8C11.9 51.9 12.2 47.1 12.1 42.2C12.1 36.4 12.1 30.6 12.2 24.8C12.3 21.5 13.1 18.4 15.3 15.8C17.8 12.9 21.1 11.8 24.8 11.4C29.1 11 33.4 11.2 37.7 11.2C41.2 11.2 44.7 11 48.1 11.3C55.1 12 59.3 16.2 60 23.1C60.3 26.5 60.1 29.9 60.2 33.3C60.2 34 59.8 34 59.4 34.2C53.3 36.7 47.2 39.2 41.2 41.6C35.2 44.1 29.2 46.5 23.1 49C22.5 49.2 22.3 49.5 22.3 50.2C22.4 51.3 22.3 52.4 22.5 53.4C23 56.4 25.2 58.5 28.1 58.9C28.5 58.9 28.9 59 29.3 59C43.6 59 57.9 59 72.2 59C72.5 59 72.7 59 73 59C73.4 59.1 73.6 59.2 73.6 59.7C73.6 62.6 73.6 65.5 73.6 68.4C73.6 68.9 73.3 69 73 69.1ZM22.3 39.8C24.2 39 26 38.3 27.7 37.6C34.8 34.7 42 31.8 49.1 28.8C49.4 28.7 49.9 28.7 49.9 28.1C50 26.2 49.7 24.5 48.3 23.1C46.7 21.6 44.8 21.2 42.7 21.2C39.7 21.1 36.7 21.2 33.7 21.2C32 21.2 30.3 21.1 28.5 21.4C24.9 22 22.4 24 22.3 27C22.2 31.1 22.3 35.4 22.3 39.8Z"
                    fill="white"
                />
                <path
                    d="M216.2 31.7C216.2 22.3 216.2 12.9 216.2 3.5C216.2 2 216 2.2 217.5 2.2C227.7 2.2 237.8 2.2 248 2.2C250.8 2.2 253.6 2.6 256.3 3.5C262.9 5.7 266.5 10.5 267.6 17.3C267.9 19.3 268 21.3 268 23.3C268 35.6 268 47.8 268 60.1C268 61 267.8 61.4 266.8 61.4C263.9 61.3 261.1 61.4 258.2 61.4C256.7 61.4 256.9 61.6 256.9 60.1C256.9 48.2 256.9 36.3 256.9 24.4C256.9 22.7 256.7 21 256.2 19.3C254.9 14.6 251.1 11.6 245.9 11.6C240 11.5 234 11.6 228.1 11.6C227.1 11.6 227.3 12.2 227.3 12.7C227.3 28.2 227.3 43.7 227.3 59.2C227.3 61.4 227.3 61.4 225.1 61.4C222.6 61.4 220.1 61.4 217.6 61.4C216.6 61.4 216.3 61.2 216.3 60.2C216.2 50.5 216.2 41.1 216.2 31.7Z"
                    fill="#E13336"
                />
                <path
                    d="M315.1 31.6C315.1 22.1 315.1 12.7 315.1 3.2C315.1 2.4 315.3 2.1 316.2 2.1C323.9 2.1 331.7 1.9 339.4 2.2C346.4 2.5 353.6 6.5 354.8 16C355.3 19.7 355 23.4 355 27.1C355 27.5 354.8 27.7 354.4 27.7C351.1 27.7 347.8 27.7 344.5 27.7C343.8 27.7 343.9 27.3 343.9 26.9C343.9 24.8 343.9 22.7 343.9 20.6C343.9 19.1 343.7 17.6 343.2 16.1C342.2 13.2 340 11.9 337.1 11.4C334.3 11 331.5 11.3 328.7 11.2C327.9 11.2 326.8 10.8 326.3 11.4C325.8 11.9 326.1 13 326.1 13.8C326.1 29.1 326.1 44.5 326.1 59.8C326.1 60.8 325.9 61.1 324.9 61C322 60.9 319 60.9 316.1 61C315.3 61 315.1 60.8 315.1 60C315.1 50.7 315.1 41.1 315.1 31.6Z"
                    fill="#E13336"
                />
                <path
                    d="M290.4 2.2C296.8 2.2 303.1 2.2 309.5 2.2C310.4 2.2 310.6 2.4 310.6 3.3C310.5 5.7 310.5 8.1 310.6 10.5C310.6 11.3 310.4 11.5 309.6 11.5C304.4 11.5 299.3 11.5 294.1 11.5C293.3 11.5 293 11.7 293 12.5C293 23.7 293 35 293 46.2C293 50 295.2 52.2 299 52.2C301.8 52.2 304.5 52.2 307.3 52.2C308 52.2 308.2 52.4 308.2 53.1C308.2 55.5 308.2 58 308.2 60.4C308.2 61.1 308 61.3 307.3 61.3C302.6 61.3 297.8 61.3 293.1 61.3C287 61.2 281.9 56.2 281.9 50.1C281.8 37.7 281.9 25.2 281.8 12.8C281.8 11.3 282 11.5 280.4 11.5C277.3 11.5 274.2 11.5 271.1 11.5C270.4 11.5 270.2 11.3 270.3 10.7C270.3 8.3 270.4 5.8 270.3 3.4C270.3 2.6 270.5 2.3 271.4 2.3C277.7 2.2 284 2.2 290.4 2.2Z"
                    fill="#E13336"
                />
                <path
                    d="M22.3 39.8C22.3 35.4 22.2 31.2 22.3 26.9C22.4 23.9 24.9 21.8 28.5 21.3C30.2 21 31.9 21.1 33.7 21.1C36.7 21.1 39.7 21.1 42.7 21.1C44.8 21.1 46.7 21.5 48.3 23C49.8 24.4 50 26.2 49.9 28C49.9 28.6 49.4 28.6 49.1 28.7C42 31.6 34.8 34.6 27.7 37.5C26 38.3 24.2 39 22.3 39.8Z"
                    fill="#E13336"
                />
            </g>
            <defs>
                <clipPath id="clip0">
                    <rect width="414.6" height="79.8" fill="white" />
                </clipPath>
            </defs>
        </svg>