
<svg width="80" height="80" viewBox="0 0 80 80" fill="none" xmlns="http://www.w3.org/2000/svg">
<circle cx="40" cy="40" r="40" fill="#373D4D"/>
<path d="M23.5819 23.7502C21.879 23.7502 20.1761 23.7502 18.5628 23.7502C17.5769 23.7502 16.7703 23.3917 16.3222 22.4955C15.4259 20.9718 16.5014 19 18.2939 19C20.7139 19 23.2234 19 25.6434 19C26.8085 19 27.6152 19.717 27.884 20.8822C28.6011 24.1984 29.3181 27.5146 30.0351 30.8308C30.8417 34.4158 31.5587 38.0009 32.2758 41.586C32.7239 43.7371 34.2476 44.9022 36.3986 44.9022C41.6866 44.9022 47.0642 44.9022 52.3522 44.9022C54.5929 44.9022 56.0269 43.7371 56.475 41.586C57.5506 37.1047 58.5365 32.6233 59.612 28.142C59.9705 26.7079 60.8668 25.9909 62.1215 26.0805C63.466 26.1702 64.4519 27.4249 64.183 28.7693C63.0178 33.6092 61.9423 38.4491 60.7771 43.2889C59.8809 46.9636 56.5647 49.5628 52.7107 49.5628C47.0642 49.5628 41.3281 49.6524 35.6816 49.5628C32.9031 49.5628 30.7521 48.1288 29.0492 45.8881C27.9737 44.4541 27.6152 42.8408 27.3463 41.1379C26.1811 35.4017 24.9263 29.6656 23.6716 23.8399C23.6716 24.0191 23.5819 23.9295 23.5819 23.7502Z" fill="#BABCC2"/>
<path d="M42.4036 34.1469C43.1206 33.4299 43.8376 32.8922 44.465 32.1751C45.8991 30.7411 47.3331 29.2174 48.7671 27.6938C49.6634 26.7975 50.9182 26.7079 51.8144 27.4249C52.8003 28.2316 53.0692 29.576 52.3522 30.5619C51.9041 31.1892 51.3663 31.6374 50.9182 32.1751C48.7671 34.5054 46.5265 36.7461 44.3754 39.0764C43.2999 40.2416 41.8658 40.2416 40.7903 39.0764C39.4459 37.6424 38.0119 36.2084 36.6675 34.7743C35.7712 33.7884 35.7712 32.2648 36.6675 31.3685C37.6534 30.4722 39.0874 30.5619 40.0733 31.5478C40.7903 32.2648 41.5073 33.0714 42.2244 33.7884C42.314 34.0573 42.4036 34.1469 42.4036 34.1469Z" fill="#BABCC2"/>
<path d="M39.7148 56.733C39.7148 58.884 38.0119 60.587 35.8608 60.587C33.7098 60.587 31.9172 58.7944 31.9172 56.733C31.9172 54.5819 33.7098 52.879 35.8608 52.879C38.0119 52.879 39.7148 54.5819 39.7148 56.733Z" fill="#BABCC2"/>
<path d="M52.5315 52.879C54.6825 52.879 56.3854 54.6716 56.3854 56.733C56.3854 58.884 54.5929 60.587 52.4418 60.587C50.2908 60.587 48.5879 58.884 48.5879 56.733C48.6775 54.5819 50.3804 52.879 52.5315 52.879Z" fill="#BABCC2"/>
</svg>
