<svg width="80" height="80" viewBox="0 0 80 80" fill="none" xmlns="http://www.w3.org/2000/svg">
<circle cx="40" cy="40" r="40" fill="#373D4D"/>
<path d="M44 26.1C44.3 26.1 44.6 26.1 44.8 26.1C49.7 26.1 54.6 26.1 59.5 26.1C60.4 26.1 61.1 26.4 61.7 27C64.2 29.5 66.6 32 69.1 34.4C69.7 35 70 35.6 70 36.4C70 41.5 70 46.6 70 51.7C70 54.5 68.4 56 65.6 56C64.5 56 63.3 56 62.2 56C61.8 56 61.6 56.1 61.5 56.5C59.9 59.9 55.9 61.1 52.8 59C51.9 58.4 51.2 57.6 50.7 56.6C50.5 56.2 50.3 56.1 49.9 56.1C43.3 56.1 36.8 56.1 30.2 56.1C29.8 56.1 29.6 56.2 29.4 56.5C28.3 58.8 26.5 60 24 60C21.5 60 19.7 58.7 18.6 56.4C18.5 56.2 18.2 56 18 56C16.7 56 15.5 56 14.2 56C11.7 56 10 54.3 10 51.8C10 42.6 10 33.4 10 24.3C10 21.8 11.6 20.1 14.2 20C14.3 20 14.4 20 14.4 20C22.8 20 31.2 20 39.6 20C41.9 20 43.4 21.1 43.9 23.1C44 23.5 44 23.8 44 24.2C44 24.9 44 25.4 44 26.1ZM14.1 24.1C14.1 33.4 14.1 42.7 14.1 52.1C15.4 52.1 16.7 52.1 18 52.1C18.4 52.1 18.5 52 18.7 51.6C19.8 49.3 21.6 48.1 24.1 48.1C26.6 48.1 28.4 49.3 29.5 51.6C29.7 52 29.8 52.1 30.3 52.1C33.4 52.1 36.5 52.1 39.5 52.1C39.7 52.1 39.9 52.1 40.1 52.1C40.1 42.7 40.1 33.5 40.1 24.2C31.3 24.1 22.7 24.1 14.1 24.1ZM66 52.1C66 51.9 66 51.8 66 51.7C66 46.9 66 42.1 66 37.3C66 37.1 65.8 36.8 65.7 36.6C63.7 34.6 61.6 32.5 59.6 30.5C59.3 30.2 59 30.1 58.6 30.1C54 30.1 49.3 30.1 44.7 30.1C44.5 30.1 44.3 30.1 44 30.1C44 37.4 44 44.7 44 52.1C44.2 52.1 44.4 52.1 44.6 52.1C46.3 52.1 48 52.1 49.7 52.1C50.2 52.1 50.4 52 50.6 51.5C51.6 49.4 53.3 48.3 55.6 48.1C58.1 47.9 60.3 49.3 61.4 51.6C61.5 51.8 61.7 52 61.9 52C63.3 52.1 64.6 52.1 66 52.1ZM22 54.1C22 55.2 22.9 56.1 24 56.1C25.1 56.1 26 55.2 26 54.1C26 53 25.1 52.1 24 52.1C22.9 52.1 22 53 22 54.1ZM58 54.1C58 53 57.1 52.1 56 52.1C54.9 52.1 54 53 54 54.1C54 55.2 54.9 56.1 56 56.1C57.1 56.1 58 55.2 58 54.1Z" fill="#BABCC2"/>
<path d="M56 44.1C54.1 44.1 52.1 44.1 50.2 44.1C48.7 44.1 48 43.4 48 41.9C48 39.4 48 36.8 48 34.3C48 32.9 48.8 32.1 50.2 32.1C52 32.1 53.9 32.1 55.7 32.1C56.4 32.1 57 32.3 57.6 32.9C59.5 34.8 61.3 36.7 63.2 38.5C63.8 39.1 64 39.7 64 40.5C64 41 64 41.5 64 42C64 43.3 63.2 44.1 61.9 44.1C60 44.1 58 44.1 56 44.1ZM52 40.1C54.4 40.1 56.7 40.1 59 40.1C57.8 38.8 56.5 37.6 55.3 36.3C55.2 36.2 55.1 36.2 55 36.2C54 36.2 53 36.2 52 36.2C52 37.5 52 38.7 52 40.1Z" fill="#BABCC2"/>
</svg>
